<svg width="365" height="245" viewBox="0 0 365 245" fill="none" xmlns="http://www.w3.org/2000/svg">
<path d="M5.59857e-06 243.5C4.32997e-06 228.989 2.75471 214.62 8.10683 201.213C13.459 187.807 21.3037 175.626 31.1931 165.365C41.0826 155.104 52.823 146.964 65.7442 141.411C78.6654 135.858 92.5142 133 106.5 133C120.486 133 134.335 135.858 147.256 141.411C160.177 146.964 171.917 155.104 181.807 165.365C191.696 175.626 199.541 187.807 204.893 201.213C210.245 214.62 213 228.989 213 243.5L5.59857e-06 243.5Z" fill="#FBFF41"/>
<path d="M365 62.5C365 86.4662 360.279 110.198 351.108 132.34C341.937 154.482 328.494 174.6 311.547 191.547C294.6 208.494 274.482 221.937 252.34 231.108C230.198 240.28 206.466 245 182.5 245C158.534 245 134.802 240.28 112.66 231.108C90.5183 221.937 70.3997 208.494 53.453 191.547C36.5063 174.6 23.0635 154.482 13.892 132.34C4.7205 110.198 -2.09519e-06 86.4662 0 62.5L365 62.5Z" fill="#59FF91"/>
<path d="M335.229 40.7487C335.217 49.4908 333.484 58.1449 330.127 66.217C326.771 74.2891 321.858 81.6211 315.668 87.7943C309.478 93.9676 302.133 98.8612 294.052 102.196C285.97 105.53 277.312 107.241 268.57 107.229C259.828 107.217 251.173 105.483 243.101 102.127C235.029 98.7709 227.697 93.8575 221.524 87.6676C215.351 81.4778 210.457 74.1326 207.123 66.0515C203.788 57.9704 202.078 49.3116 202.09 40.5696L335.229 40.7487Z" fill="#FFD041"/>
<path d="M279.57 0C288.312 -3.82127e-07 296.968 1.72187 305.045 5.06731C313.121 8.41275 320.46 13.3162 326.642 19.4978C332.823 25.6794 337.727 33.0179 341.072 41.0946C344.417 49.1712 346.139 57.8276 346.139 66.5697C346.139 75.3117 344.417 83.9682 341.072 92.0448C337.727 100.121 332.823 107.46 326.642 113.642C320.46 119.823 313.121 124.727 305.045 128.072C296.968 131.417 288.312 133.139 279.57 133.139V0Z" fill="#41FFF4"/>
<path d="M152 244.5C152 229.989 154.755 215.62 160.107 202.213C165.459 188.807 173.304 176.626 183.193 166.365C193.083 156.104 204.823 147.964 217.744 142.411C230.665 136.858 244.514 134 258.5 134C272.486 134 286.335 136.858 299.256 142.411C312.177 147.964 323.917 156.104 333.807 166.365C343.696 176.626 351.541 188.807 356.893 202.213C362.245 215.62 365 229.989 365 244.5L152 244.5Z" fill="#FB41FF"/>
</svg>
