<svg xmlns="http://www.w3.org/2000/svg" id="canvas" viewBox="230.111 256.089 1091.062 207.299"><path d="M 304.67,300.94 C 304.29 300.07, 303.76 299.54, 302.03 298.66 C 300.30 297.78, 299.11 296.70, 296.00 296.54 C 292.88 296.39, 290.67 296.58, 286.46 297.88 C 282.25 299.17, 279.83 300.03, 274.96 303.01 C 270.08 306.00, 267.17 308.29, 262.08 312.81 C 257.00 317.33, 254.08 319.93, 249.53 325.61 C 244.98 331.30, 242.48 334.88, 239.32 341.23 C 236.17 347.58, 234.84 351.33, 233.78 357.37 C 232.72 363.42, 233.01 366.41, 234.02 371.47 C 235.02 376.53, 236.24 378.96, 238.80 382.68 C 241.36 386.39, 243.17 388.35, 246.81 390.05 C 250.45 391.75, 252.90 392.04, 257.00 391.18 C 261.10 390.31, 263.24 388.87, 267.30 385.70 C 271.36 382.53, 273.47 380.21, 277.31 375.35 C 281.15 370.49, 283.30 367.44, 286.48 361.41 C 289.65 355.38, 291.00 351.62, 293.17 345.21 C 295.34 338.80, 296.14 335.22, 297.34 329.36 C 298.54 323.51, 298.91 320.76, 299.18 315.94 C 299.45 311.13, 299.27 308.70, 298.69 305.30 C 298.12 301.91, 297.46 300.72, 296.32 298.97 C 295.18 297.22, 294.56 296.96, 293.00 296.57 C 291.44 296.18, 290.22 296.22, 288.52 297.03 C 286.82 297.84, 285.83 298.72, 284.50 300.61 C 283.18 302.51, 282.66 303.86, 281.87 306.51 C 281.08 309.15, 280.72 310.62, 280.56 313.85 C 280.39 317.08, 280.55 319.21, 281.04 322.66 C 281.54 326.11, 282.06 328.20, 283.05 331.09 C 284.03 333.98, 284.73 335.20, 285.97 337.12 C 287.20 339.03, 288.22 340.14, 289.22 340.67 C 290.21 341.20, 290.79 340.82, 290.95 339.76 C 291.11 338.70, 290.50 337.43, 290.01 335.36 C 289.52 333.30, 289.21 332.14, 288.51 329.44 C 287.80 326.75, 286.92 324.92, 286.49 321.88 C 286.06 318.85, 286.13 316.97, 286.38 314.26 C 286.63 311.55, 287.07 310.43, 287.75 308.32 C 288.43 306.21, 289.09 305.27, 289.79 303.71 C 290.48 302.16, 290.68 301.47, 291.23 300.55 C 291.77 299.64, 292.10 299.14, 292.51 299.14 C 292.92 299.13, 292.83 299.15, 293.28 300.52 C 293.73 301.89, 294.20 302.93, 294.77 305.99 C 295.34 309.06, 296.12 311.28, 296.11 315.85 C 296.11 320.43, 295.81 323.14, 294.74 328.85 C 293.68 334.57, 292.90 338.14, 290.79 344.41 C 288.67 350.67, 287.33 354.36, 284.19 360.19 C 281.04 366.02, 278.84 368.96, 275.08 373.55 C 271.31 378.14, 269.10 380.31, 265.34 383.15 C 261.58 385.99, 259.67 387.02, 256.27 387.76 C 252.86 388.50, 251.27 388.24, 248.30 386.86 C 245.33 385.47, 243.72 384.03, 241.40 380.84 C 239.09 377.65, 237.76 375.51, 236.72 370.90 C 235.69 366.29, 235.29 363.52, 236.24 357.79 C 237.18 352.07, 238.41 348.41, 241.44 342.28 C 244.48 336.15, 246.92 332.62, 251.40 327.13 C 255.88 321.64, 258.80 319.09, 263.83 314.83 C 268.87 310.56, 271.84 308.37, 276.57 305.81 C 281.30 303.25, 283.67 302.69, 287.47 302.01 C 291.28 301.34, 292.95 302.21, 295.59 302.44 C 298.24 302.68, 299.04 303.10, 300.71 303.21 C 302.39 303.31, 303.16 303.44, 303.96 302.98 C 304.75 302.53, 305.06 301.80, 304.67 300.94" style="stroke: black; fill: black;"/><path d="M 314.93,345.27 C 314.51 346.01, 314.60 346.39, 314.65 348.11 C 314.69 349.83, 314.68 351.14, 315.14 353.87 C 315.60 356.60, 316.27 358.35, 316.95 361.76 C 317.63 365.16, 317.96 367.29, 318.55 370.90 C 319.13 374.50, 319.16 376.58, 319.86 379.78 C 320.55 382.97, 320.78 384.52, 322.02 386.87 C 323.26 389.23, 324.23 390.42, 326.04 391.56 C 327.84 392.71, 328.90 392.89, 331.04 392.60 C 333.19 392.31, 334.50 391.95, 336.76 390.13 C 339.02 388.30, 339.92 386.69, 342.34 383.47 C 344.77 380.26, 346.05 377.83, 348.88 374.05 C 351.72 370.28, 353.66 367.86, 356.52 364.59 C 359.39 361.32, 361.46 359.70, 363.19 357.70 C 364.93 355.69, 365.04 354.49, 365.20 354.56 C 365.37 354.63, 364.30 355.76, 364.01 358.05 C 363.71 360.35, 363.52 362.65, 363.73 366.05 C 363.95 369.44, 364.24 371.60, 365.08 375.02 C 365.91 378.43, 366.33 380.34, 367.91 383.12 C 369.50 385.90, 370.70 387.18, 373.00 388.94 C 375.29 390.70, 376.54 391.50, 379.41 391.91 C 382.27 392.32, 383.94 392.13, 387.34 390.98 C 390.74 389.83, 392.62 388.77, 396.39 386.14 C 400.16 383.51, 402.39 381.70, 406.19 377.85 C 410.00 373.99, 412.26 371.33, 415.42 366.85 C 418.57 362.38, 419.97 359.72, 421.98 355.47 C 424.00 351.22, 425.14 349.04, 425.48 345.61 C 425.83 342.17, 425.38 340.22, 423.71 338.31 C 422.03 336.40, 419.94 335.74, 417.10 336.08 C 414.26 336.41, 412.38 337.53, 409.51 339.97 C 406.65 342.41, 405.09 344.52, 402.77 348.30 C 400.46 352.07, 399.24 354.55, 397.95 358.85 C 396.66 363.15, 396.09 365.80, 396.32 369.79 C 396.55 373.78, 397.04 375.90, 399.08 378.80 C 401.13 381.71, 403.07 383.06, 406.55 384.32 C 410.04 385.58, 412.29 385.70, 416.52 385.10 C 420.74 384.50, 423.05 383.38, 427.67 381.33 C 432.29 379.27, 434.87 377.82, 439.61 374.84 C 444.34 371.87, 446.86 369.93, 451.33 366.44 C 455.81 362.95, 458.05 360.63, 461.98 357.41 C 465.92 354.19, 468.03 352.43, 470.99 350.32 C 473.96 348.21, 475.24 347.30, 476.81 346.85 C 478.38 346.40, 478.27 346.63, 478.83 348.08 C 479.39 349.53, 479.24 351.31, 479.61 354.09 C 479.99 356.86, 480.19 358.87, 480.71 361.94 C 481.22 365.02, 481.30 366.74, 482.19 369.45 C 483.08 372.16, 483.65 373.54, 485.16 375.51 C 486.66 377.48, 487.63 378.39, 489.70 379.30 C 491.77 380.22, 492.85 380.60, 495.50 380.10 C 498.15 379.59, 499.76 378.78, 502.95 376.79 C 506.14 374.80, 507.87 372.95, 511.45 370.13 C 515.03 367.31, 517.02 365.34, 520.86 362.68 C 524.71 360.03, 527.12 358.59, 530.67 356.85 C 534.23 355.11, 535.97 354.42, 538.65 353.99 C 541.32 353.55, 542.24 353.65, 544.04 354.69 C 545.83 355.74, 546.44 356.86, 547.61 359.21 C 548.78 361.55, 549.25 363.15, 549.88 366.41 C 550.51 369.68, 550.50 371.87, 550.75 375.54 C 550.99 379.22, 550.71 381.58, 551.11 384.80 C 551.51 388.02, 551.91 389.44, 552.74 391.65 C 553.58 393.86, 554.41 395.11, 555.28 395.84 C 556.14 396.56, 556.74 396.30, 557.05 395.28 C 557.37 394.25, 557.01 392.91, 556.83 390.71 C 556.65 388.51, 556.43 387.37, 556.16 384.27 C 555.90 381.16, 555.83 378.94, 555.51 375.18 C 555.20 371.43, 555.31 369.14, 554.57 365.49 C 553.83 361.83, 553.52 359.80, 551.81 356.90 C 550.10 354.01, 548.78 352.41, 546.03 351.00 C 543.27 349.60, 541.45 349.38, 538.03 349.86 C 534.62 350.33, 532.82 351.44, 528.95 353.38 C 525.09 355.31, 522.72 356.84, 518.71 359.52 C 514.71 362.20, 512.59 364.15, 508.93 366.75 C 505.26 369.36, 503.29 370.82, 500.36 372.55 C 497.44 374.28, 496.12 374.78, 494.31 375.41 C 492.51 376.04, 492.37 376.18, 491.34 375.69 C 490.31 375.20, 489.90 374.49, 489.15 372.95 C 488.40 371.41, 488.09 370.37, 487.59 367.98 C 487.08 365.58, 487.11 364.01, 486.63 360.98 C 486.15 357.94, 486.15 355.80, 485.19 352.80 C 484.23 349.79, 483.61 347.79, 481.82 345.95 C 480.04 344.10, 478.85 343.30, 476.25 343.56 C 473.65 343.82, 472.08 344.96, 468.82 347.24 C 465.55 349.52, 463.78 351.60, 459.92 354.96 C 456.05 358.32, 453.87 360.62, 449.47 364.06 C 445.08 367.50, 442.59 369.35, 437.95 372.17 C 433.32 374.98, 430.69 376.32, 426.30 378.13 C 421.91 379.94, 419.67 380.78, 416.00 381.24 C 412.33 381.70, 410.66 381.39, 407.95 380.42 C 405.25 379.46, 404.00 378.58, 402.49 376.41 C 400.97 374.25, 400.51 372.87, 400.39 369.60 C 400.27 366.33, 400.67 363.86, 401.89 360.07 C 403.11 356.29, 404.34 353.95, 406.51 350.67 C 408.68 347.39, 410.45 345.75, 412.75 343.65 C 415.05 341.55, 416.30 340.84, 418.01 340.17 C 419.71 339.50, 420.59 339.32, 421.28 340.30 C 421.98 341.28, 421.96 342.31, 421.46 345.06 C 420.97 347.80, 420.54 350.03, 418.79 354.01 C 417.04 357.99, 415.73 360.68, 412.72 364.95 C 409.71 369.23, 407.45 371.80, 403.75 375.38 C 400.05 378.95, 397.77 380.59, 394.20 382.83 C 390.62 385.06, 388.71 385.64, 385.87 386.55 C 383.04 387.45, 382.00 387.62, 380.03 387.37 C 378.05 387.11, 377.48 386.62, 375.98 385.28 C 374.49 383.94, 373.66 382.95, 372.55 380.66 C 371.43 378.37, 371.02 376.85, 370.43 373.83 C 369.83 370.81, 369.90 368.81, 369.57 365.57 C 369.24 362.32, 369.51 360.15, 368.77 357.61 C 368.03 355.07, 367.60 353.53, 365.87 352.87 C 364.14 352.20, 362.63 352.47, 360.12 354.27 C 357.61 356.07, 356.24 358.40, 353.33 361.85 C 350.43 365.30, 348.55 367.80, 345.60 371.52 C 342.65 375.24, 341.10 377.56, 338.60 380.46 C 336.10 383.35, 334.81 384.31, 333.10 385.99 C 331.39 387.67, 331.02 388.35, 330.07 388.87 C 329.12 389.39, 329.05 389.39, 328.34 388.59 C 327.63 387.79, 327.21 386.84, 326.51 384.87 C 325.80 382.89, 325.43 381.66, 324.82 378.72 C 324.21 375.78, 323.93 373.72, 323.45 370.17 C 322.97 366.62, 322.77 364.46, 322.43 360.94 C 322.08 357.43, 322.33 355.46, 321.71 352.60 C 321.10 349.75, 320.34 348.29, 319.35 346.66 C 318.36 345.03, 317.63 344.72, 316.75 344.44 C 315.87 344.16, 315.35 344.54, 314.93 345.27" style="stroke: black; fill: black;"/><path d="M 618.12,260.09 C 617.51 261.49, 617.41 262.94, 617.12 267.19 C 616.83 271.43, 616.95 274.60, 616.67 281.32 C 616.40 288.04, 616.32 292.69, 615.75 300.80 C 615.19 308.91, 614.74 313.68, 613.86 321.88 C 612.98 330.08, 612.52 334.65, 611.35 341.80 C 610.18 348.95, 609.19 352.45, 608.00 357.63 C 606.81 362.82, 606.12 364.77, 605.39 367.71 C 604.67 370.64, 604.35 371.28, 604.38 372.29 C 604.41 373.31, 604.76 373.54, 605.54 372.79 C 606.32 372.04, 607.27 371.48, 608.28 368.56 C 609.29 365.64, 609.56 363.48, 610.61 358.19 C 611.66 352.91, 612.47 349.36, 613.55 342.14 C 614.62 334.93, 615.06 330.35, 615.98 322.11 C 616.89 313.88, 617.41 309.11, 618.11 300.99 C 618.82 292.86, 619.03 288.20, 619.48 281.47 C 619.93 274.74, 620.21 271.60, 620.36 267.35 C 620.51 263.10, 620.66 261.67, 620.21 260.22 C 619.77 258.77, 618.74 258.70, 618.12 260.09" style="stroke: black; fill: black;"/><path d="M 579.40,343.87 C 580.48 344.18, 581.29 343.97, 583.99 343.49 C 586.70 343.00, 588.56 342.16, 592.92 341.44 C 597.29 340.72, 600.35 340.30, 605.81 339.88 C 611.27 339.47, 614.58 339.48, 620.22 339.39 C 625.87 339.29, 628.77 339.46, 634.04 339.41 C 639.31 339.36, 642.17 339.09, 646.56 339.13 C 650.95 339.17, 652.97 339.29, 655.99 339.61 C 659.01 339.94, 659.96 339.93, 661.66 340.74 C 663.37 341.54, 663.85 342.03, 664.51 343.62 C 665.17 345.21, 664.90 346.22, 664.97 348.69 C 665.04 351.15, 664.73 353.04, 664.86 355.93 C 665.00 358.82, 665.30 360.73, 665.63 363.13 C 665.97 365.54, 666.21 366.38, 666.55 367.95 C 666.88 369.53, 666.82 370.35, 667.30 371.01 C 667.78 371.66, 668.31 371.79, 668.94 371.22 C 669.58 370.66, 669.97 369.86, 670.50 368.19 C 671.02 366.52, 671.45 365.40, 671.58 362.88 C 671.71 360.36, 671.32 358.56, 671.13 355.58 C 670.94 352.61, 671.20 350.81, 670.62 347.99 C 670.05 345.18, 669.70 343.68, 668.26 341.52 C 666.81 339.36, 665.77 338.38, 663.40 337.18 C 661.02 335.99, 659.76 335.85, 656.38 335.56 C 653.01 335.27, 650.99 335.56, 646.52 335.72 C 642.04 335.87, 639.25 336.23, 633.99 336.35 C 628.73 336.47, 625.87 336.31, 620.20 336.32 C 614.52 336.32, 611.19 336.19, 605.62 336.39 C 600.06 336.58, 596.94 336.82, 592.37 337.30 C 587.80 337.77, 585.52 337.85, 582.77 338.78 C 580.03 339.71, 579.30 340.92, 578.62 341.94 C 577.95 342.95, 578.33 343.56, 579.40 343.87" style="stroke: black; fill: black;"/><path d="M 672.66,308.07 C 672.70 308.63, 672.82 308.63, 672.86 308.07 C 672.90 307.52, 672.91 305.85, 672.87 305.29 C 672.84 304.74, 672.72 304.74, 672.67 305.29 C 672.63 305.85, 672.62 307.52, 672.66 308.07" style="stroke: black; fill: black;"/><path d="M 699.48,357.53 C 698.74 358.77, 698.52 360.72, 698.29 363.55 C 698.07 366.38, 697.97 368.63, 698.36 371.68 C 698.75 374.73, 698.99 376.87, 700.22 378.82 C 701.46 380.77, 702.66 381.42, 704.55 381.45 C 706.43 381.48, 707.56 380.89, 709.65 378.96 C 711.74 377.03, 712.66 374.90, 715.00 371.79 C 717.33 368.68, 718.66 366.43, 721.34 363.40 C 724.03 360.36, 725.83 358.61, 728.41 356.64 C 730.99 354.66, 732.37 354.00, 734.25 353.52 C 736.14 353.03, 736.67 353.15, 737.82 354.22 C 738.98 355.29, 739.17 356.40, 740.03 358.89 C 740.89 361.37, 741.26 363.45, 742.12 366.66 C 742.98 369.87, 743.34 371.99, 744.33 374.92 C 745.31 377.86, 745.98 379.40, 747.04 381.32 C 748.11 383.24, 748.73 383.68, 749.64 384.51 C 750.54 385.34, 751.01 385.42, 751.57 385.46 C 752.13 385.50, 752.33 385.18, 752.45 384.70 C 752.57 384.23, 752.30 384.13, 752.16 383.09 C 752.01 382.05, 752.17 381.48, 751.70 379.50 C 751.24 377.52, 750.70 376.05, 749.85 373.18 C 748.99 370.31, 748.42 368.45, 747.45 365.16 C 746.48 361.87, 746.44 359.55, 744.98 356.72 C 743.53 353.90, 742.46 352.51, 740.16 351.04 C 737.87 349.58, 736.39 349.00, 733.50 349.38 C 730.61 349.76, 728.84 350.77, 725.72 352.95 C 722.60 355.12, 720.89 357.13, 717.92 360.25 C 714.95 363.37, 713.36 365.52, 710.87 368.56 C 708.39 371.59, 706.83 373.30, 705.48 375.41 C 704.13 377.53, 704.29 378.73, 704.12 379.14 C 703.94 379.55, 704.45 379.09, 704.60 377.49 C 704.76 375.89, 705.00 374.01, 704.90 371.14 C 704.80 368.28, 704.69 365.94, 704.10 363.17 C 703.51 360.41, 702.88 358.46, 701.95 357.33 C 701.03 356.20, 700.21 356.28, 699.48 357.53" style="stroke: black; fill: black;"/><path d="M 927.40,275.13 C 928.25 274.55, 929.13 273.61, 929.29 271.85 C 929.45 270.09, 929.41 268.40, 928.18 266.32 C 926.96 264.24, 926.07 262.53, 923.16 261.44 C 920.25 260.36, 918.04 260.17, 913.64 260.91 C 909.24 261.64, 906.70 262.81, 901.15 265.13 C 895.60 267.44, 891.99 268.82, 885.91 272.49 C 879.83 276.16, 876.48 278.59, 870.75 283.47 C 865.02 288.36, 861.85 291.31, 857.28 296.92 C 852.70 302.53, 850.55 305.62, 847.87 311.51 C 845.19 317.40, 844.41 320.69, 843.89 326.38 C 843.36 332.07, 843.78 335.13, 845.24 339.94 C 846.70 344.75, 848.11 346.94, 851.18 350.45 C 854.24 353.96, 856.42 355.35, 860.56 357.50 C 864.70 359.65, 867.16 360.37, 871.87 361.19 C 876.58 362.02, 879.30 362.05, 884.10 361.61 C 888.91 361.18, 891.34 360.51, 895.88 359.01 C 900.42 357.51, 902.60 356.34, 906.82 354.09 C 911.03 351.85, 913.16 350.42, 916.95 347.77 C 920.74 345.13, 922.45 343.53, 925.76 340.85 C 929.07 338.17, 930.73 336.72, 933.50 334.38 C 936.28 332.03, 937.63 331.07, 939.62 329.11 C 941.62 327.16, 942.61 326.09, 943.46 324.59 C 944.31 323.08, 944.24 321.96, 943.86 321.58 C 943.48 321.20, 942.60 321.09, 941.57 322.69 C 940.53 324.29, 940.12 325.80, 938.69 329.58 C 937.26 333.37, 936.39 336.02, 934.41 341.62 C 932.43 347.23, 931.16 350.79, 928.79 357.62 C 926.42 364.45, 925.08 368.43, 922.54 375.78 C 920.00 383.12, 918.70 387.00, 916.08 394.37 C 913.45 401.74, 911.92 405.73, 909.41 412.61 C 906.90 419.50, 905.76 422.78, 903.52 428.79 C 901.29 434.81, 900.25 437.91, 898.22 442.69 C 896.20 447.47, 894.90 449.75, 893.40 452.69 C 891.89 455.63, 891.47 456.41, 890.70 457.39 C 889.93 458.37, 889.88 458.33, 889.55 457.59 C 889.22 456.86, 889.38 456.20, 889.05 453.70 C 888.72 451.20, 887.90 449.39, 887.90 445.11 C 887.89 440.82, 887.97 438.01, 889.03 432.26 C 890.08 426.50, 890.84 422.92, 893.16 416.33 C 895.49 409.73, 897.04 405.94, 900.64 399.27 C 904.24 392.59, 906.51 389.05, 911.17 382.96 C 915.83 376.86, 918.69 373.82, 923.94 368.79 C 929.18 363.76, 932.15 361.56, 937.39 357.80 C 942.64 354.05, 945.41 352.45, 950.16 350.01 C 954.90 347.57, 957.28 346.69, 961.10 345.61 C 964.92 344.53, 966.61 344.60, 969.25 344.62 C 971.90 344.63, 972.81 344.99, 974.34 345.69 C 975.86 346.38, 975.93 346.92, 976.88 348.08 C 977.83 349.24, 978.19 351.00, 979.09 351.50 C 979.99 351.99, 981.14 351.72, 981.37 350.57 C 981.59 349.41, 981.28 347.43, 980.22 345.73 C 979.15 344.03, 978.23 343.14, 976.03 342.08 C 973.83 341.02, 972.39 340.36, 969.20 340.44 C 966.02 340.53, 964.17 341.06, 960.11 342.50 C 956.05 343.94, 953.71 344.96, 948.89 347.65 C 944.07 350.33, 941.31 352.00, 936.02 355.92 C 930.73 359.84, 927.75 362.09, 922.44 367.24 C 917.14 372.39, 914.24 375.48, 909.49 381.67 C 904.74 387.86, 902.42 391.44, 898.69 398.20 C 894.95 404.96, 893.34 408.78, 890.80 415.46 C 888.27 422.15, 887.41 425.73, 886.00 431.61 C 884.59 437.50, 884.19 440.27, 883.75 444.91 C 883.32 449.54, 883.02 451.84, 883.83 454.80 C 884.65 457.75, 886.11 458.71, 887.83 459.67 C 889.56 460.63, 890.69 460.65, 892.47 459.59 C 894.24 458.54, 895.02 457.58, 896.70 454.40 C 898.37 451.23, 899.04 448.69, 900.85 443.73 C 902.66 438.76, 903.63 435.67, 905.74 429.59 C 907.86 423.52, 908.97 420.24, 911.43 413.34 C 913.89 406.44, 915.42 402.44, 918.06 395.08 C 920.70 387.71, 922.00 383.83, 924.62 376.51 C 927.25 369.19, 928.62 365.24, 931.19 358.50 C 933.76 351.76, 935.14 348.27, 937.49 342.83 C 939.84 337.40, 941.31 335.07, 942.95 331.32 C 944.59 327.57, 945.49 326.19, 945.70 324.07 C 945.91 321.95, 945.04 321.20, 944.00 320.72 C 942.96 320.24, 942.10 320.71, 940.51 321.66 C 938.92 322.61, 938.01 323.54, 936.04 325.47 C 934.08 327.40, 933.22 328.79, 930.69 331.30 C 928.16 333.81, 926.53 335.28, 923.38 338.01 C 920.23 340.74, 918.57 342.33, 914.94 344.95 C 911.31 347.58, 909.25 348.96, 905.23 351.14 C 901.21 353.32, 899.11 354.42, 894.83 355.84 C 890.54 357.27, 888.28 357.86, 883.80 358.26 C 879.32 358.66, 876.79 358.60, 872.44 357.86 C 868.10 357.12, 865.85 356.45, 862.06 354.56 C 858.28 352.66, 856.33 351.46, 853.52 348.37 C 850.70 345.27, 849.40 343.43, 847.98 339.08 C 846.57 334.73, 846.05 331.92, 846.46 326.60 C 846.86 321.28, 847.51 318.12, 850.02 312.47 C 852.54 306.83, 854.58 303.80, 859.03 298.35 C 863.47 292.90, 866.61 289.97, 872.25 285.25 C 877.89 280.52, 881.21 278.16, 887.22 274.72 C 893.23 271.29, 896.91 270.02, 902.30 268.07 C 907.69 266.12, 910.39 265.32, 914.18 264.97 C 917.96 264.63, 919.36 265.57, 921.23 266.36 C 923.09 267.15, 922.93 267.78, 923.50 268.93 C 924.08 270.08, 923.79 270.95, 924.09 272.11 C 924.40 273.28, 924.37 274.15, 925.04 274.75 C 925.70 275.36, 926.55 275.71, 927.40 275.13" style="stroke: black; fill: black;"/><path d="M 1011.35,337.39 C 1010.82 339.60, 1011.19 343.52, 1011.28 348.37 C 1011.37 353.22, 1011.42 357.14, 1011.78 361.62 C 1012.14 366.10, 1012.37 368.97, 1013.08 370.77 C 1013.80 372.56, 1014.93 372.46, 1015.37 370.59 C 1015.81 368.73, 1015.40 365.91, 1015.28 361.44 C 1015.17 356.97, 1015.05 353.07, 1014.79 348.24 C 1014.52 343.41, 1014.63 339.47, 1013.95 337.30 C 1013.26 335.13, 1011.88 335.17, 1011.35 337.39" style="stroke: black; fill: black;"/><path d="M 1028.50,297.18 C 1029.19 296.70, 1029.40 296.35, 1029.25 296.16 C 1029.10 295.97, 1028.51 296.11, 1027.76 296.24 C 1027.01 296.38, 1026.19 296.46, 1025.51 296.84 C 1024.82 297.22, 1024.27 297.79, 1024.34 298.14 C 1024.40 298.49, 1025.00 298.76, 1025.84 298.57 C 1026.67 298.38, 1027.82 297.66, 1028.50 297.18" style="stroke: black; fill: black;"/><path d="M 1063.11,279.89 C 1062.37 281.20, 1062.12 283.02, 1061.67 286.65 C 1061.22 290.28, 1061.29 292.87, 1060.87 298.05 C 1060.46 303.23, 1060.38 306.81, 1059.59 312.54 C 1058.79 318.28, 1058.10 321.55, 1056.88 326.73 C 1055.66 331.91, 1054.71 334.57, 1053.48 338.45 C 1052.24 342.33, 1051.13 343.87, 1050.71 346.14 C 1050.29 348.40, 1050.51 349.22, 1051.36 349.76 C 1052.22 350.30, 1053.12 350.29, 1054.99 348.86 C 1056.87 347.42, 1057.74 345.51, 1060.75 342.58 C 1063.76 339.66, 1065.89 337.18, 1070.05 334.23 C 1074.21 331.28, 1076.95 329.62, 1081.55 327.83 C 1086.14 326.03, 1088.98 325.54, 1093.02 325.26 C 1097.06 324.99, 1099.14 325.48, 1101.75 326.46 C 1104.35 327.44, 1105.08 328.35, 1106.06 330.15 C 1107.04 331.96, 1107.08 332.97, 1106.63 335.50 C 1106.17 338.03, 1105.70 339.62, 1103.78 342.82 C 1101.87 346.01, 1100.30 348.11, 1097.05 351.46 C 1093.80 354.82, 1091.45 356.79, 1087.54 359.57 C 1083.64 362.35, 1081.10 363.57, 1077.50 365.37 C 1073.91 367.17, 1071.99 367.55, 1069.56 368.57 C 1067.13 369.59, 1066.52 369.97, 1065.34 370.47 C 1064.15 370.97, 1064.00 370.75, 1063.63 371.08 C 1063.26 371.41, 1063.09 371.68, 1063.50 372.10 C 1063.90 372.53, 1064.12 373.03, 1065.66 373.21 C 1067.20 373.39, 1068.46 373.89, 1071.19 373.01 C 1073.93 372.13, 1075.65 370.91, 1079.34 368.81 C 1083.03 366.71, 1085.58 365.46, 1089.66 362.52 C 1093.73 359.58, 1096.20 357.62, 1099.73 354.12 C 1103.27 350.62, 1105.06 348.59, 1107.33 345.00 C 1109.59 341.41, 1110.59 339.54, 1111.04 336.17 C 1111.49 332.81, 1111.15 330.84, 1109.57 328.15 C 1107.99 325.47, 1106.51 324.04, 1103.14 322.76 C 1099.78 321.48, 1097.32 321.38, 1092.75 321.75 C 1088.19 322.13, 1085.30 322.79, 1080.33 324.64 C 1075.36 326.49, 1072.46 328.12, 1067.89 331.02 C 1063.33 333.91, 1060.76 336.16, 1057.50 339.13 C 1054.24 342.10, 1052.77 343.82, 1051.59 345.88 C 1050.41 347.95, 1051.05 349.15, 1051.60 349.45 C 1052.14 349.76, 1053.23 349.40, 1054.31 347.41 C 1055.39 345.42, 1055.87 343.51, 1057.00 339.51 C 1058.14 335.52, 1058.82 332.73, 1059.98 327.43 C 1061.14 322.14, 1061.91 318.82, 1062.80 313.01 C 1063.69 307.20, 1063.88 303.59, 1064.43 298.38 C 1064.99 293.18, 1065.38 290.65, 1065.56 286.99 C 1065.75 283.33, 1065.86 281.51, 1065.37 280.09 C 1064.88 278.67, 1063.85 278.57, 1063.11 279.89" style="stroke: black; fill: black;"/><path d="M 1183.52,310.31 C 1182.65 309.52, 1181.61 308.71, 1179.03 308.49 C 1176.44 308.28, 1174.30 308.44, 1170.60 309.24 C 1166.90 310.04, 1164.64 310.82, 1160.52 312.50 C 1156.39 314.19, 1153.81 315.57, 1149.97 317.66 C 1146.14 319.74, 1143.96 320.71, 1141.34 322.92 C 1138.73 325.13, 1137.53 326.39, 1136.89 328.71 C 1136.25 331.02, 1136.70 332.34, 1138.13 334.51 C 1139.56 336.68, 1141.09 337.83, 1144.03 339.57 C 1146.96 341.32, 1149.16 341.81, 1152.81 343.24 C 1156.45 344.66, 1158.89 345.57, 1162.26 346.70 C 1165.62 347.82, 1167.45 348.33, 1169.62 348.85 C 1171.79 349.38, 1172.71 349.07, 1173.09 349.33 C 1173.48 349.59, 1173.01 349.37, 1171.56 350.16 C 1170.10 350.96, 1168.99 351.76, 1165.83 353.28 C 1162.66 354.81, 1160.20 356.16, 1155.73 357.79 C 1151.26 359.41, 1148.02 360.30, 1143.50 361.42 C 1138.98 362.53, 1136.56 362.76, 1133.13 363.36 C 1129.71 363.95, 1128.32 364.04, 1126.36 364.39 C 1124.40 364.73, 1123.96 364.69, 1123.33 365.07 C 1122.69 365.46, 1122.56 365.79, 1123.18 366.32 C 1123.80 366.85, 1124.31 367.47, 1126.43 367.73 C 1128.55 367.99, 1130.19 368.10, 1133.79 367.60 C 1137.40 367.11, 1139.78 366.40, 1144.44 365.25 C 1149.11 364.10, 1152.39 363.35, 1157.11 361.86 C 1161.83 360.36, 1164.60 359.52, 1168.05 357.78 C 1171.49 356.04, 1172.89 355.05, 1174.33 353.15 C 1175.77 351.26, 1175.85 350.05, 1175.27 348.29 C 1174.69 346.53, 1173.73 345.64, 1171.45 344.36 C 1169.18 343.08, 1167.26 343.05, 1163.91 341.87 C 1160.56 340.70, 1158.16 339.87, 1154.70 338.48 C 1151.23 337.08, 1149.28 336.21, 1146.58 334.89 C 1143.87 333.57, 1142.51 332.88, 1141.18 331.87 C 1139.85 330.86, 1139.32 330.88, 1139.93 329.83 C 1140.53 328.78, 1141.78 328.29, 1144.20 326.60 C 1146.61 324.91, 1148.44 323.38, 1152.02 321.39 C 1155.61 319.40, 1158.21 318.08, 1162.12 316.65 C 1166.04 315.21, 1168.18 314.83, 1171.59 314.22 C 1175.00 313.60, 1176.81 313.94, 1179.16 313.59 C 1181.51 313.24, 1182.47 313.13, 1183.34 312.47 C 1184.21 311.82, 1184.38 311.11, 1183.52 310.31" style="stroke: black; fill: black;"/><path d="M 1204.74,328.86 C 1203.68 329.34, 1202.86 330.32, 1201.59 332.25 C 1200.31 334.18, 1199.36 335.55, 1198.37 338.51 C 1197.38 341.48, 1196.71 343.63, 1196.64 347.07 C 1196.58 350.52, 1196.79 352.59, 1198.05 355.74 C 1199.31 358.88, 1200.30 360.67, 1202.94 362.78 C 1205.59 364.88, 1207.63 365.55, 1211.27 366.26 C 1214.90 366.97, 1217.21 367.13, 1221.13 366.34 C 1225.04 365.55, 1227.50 364.58, 1230.83 362.30 C 1234.17 360.03, 1235.85 358.42, 1237.80 354.97 C 1239.76 351.53, 1240.35 349.02, 1240.62 345.07 C 1240.89 341.13, 1240.46 338.92, 1239.16 335.25 C 1237.87 331.58, 1236.55 329.61, 1234.15 326.74 C 1231.76 323.87, 1229.98 322.54, 1227.19 320.88 C 1224.40 319.23, 1222.61 318.87, 1220.22 318.46 C 1217.83 318.05, 1216.30 318.39, 1215.24 318.84 C 1214.18 319.30, 1214.18 319.99, 1214.93 320.75 C 1215.67 321.51, 1217.02 321.72, 1218.95 322.63 C 1220.87 323.54, 1222.19 323.87, 1224.54 325.30 C 1226.90 326.72, 1228.60 327.46, 1230.71 329.74 C 1232.82 332.03, 1233.96 333.72, 1235.10 336.73 C 1236.24 339.75, 1236.61 341.57, 1236.42 344.80 C 1236.23 348.03, 1235.74 350.10, 1234.14 352.88 C 1232.55 355.66, 1231.21 356.90, 1228.43 358.70 C 1225.66 360.50, 1223.52 361.29, 1220.27 361.88 C 1217.02 362.47, 1215.03 362.24, 1212.19 361.65 C 1209.34 361.07, 1207.88 360.51, 1206.03 358.97 C 1204.17 357.43, 1203.66 356.27, 1202.93 353.95 C 1202.19 351.64, 1202.09 350.10, 1202.36 347.39 C 1202.64 344.69, 1203.52 343.04, 1204.32 340.43 C 1205.13 337.83, 1205.88 336.49, 1206.40 334.37 C 1206.91 332.25, 1207.22 330.94, 1206.88 329.84 C 1206.55 328.74, 1205.80 328.37, 1204.74 328.86" style="stroke: black; fill: black;"/><path d="M 1261.08,320.32 C 1260.23 320.85, 1259.81 321.54, 1258.96 323.41 C 1258.11 325.28, 1257.47 326.71, 1256.82 329.68 C 1256.17 332.64, 1256.06 334.88, 1255.70 338.24 C 1255.35 341.60, 1254.82 343.62, 1255.05 346.46 C 1255.27 349.31, 1255.62 350.83, 1256.83 352.47 C 1258.03 354.10, 1258.98 354.64, 1261.05 354.66 C 1263.13 354.68, 1264.50 354.31, 1267.19 352.56 C 1269.87 350.80, 1271.39 348.72, 1274.49 345.88 C 1277.59 343.03, 1279.34 341.06, 1282.69 338.34 C 1286.04 335.61, 1287.99 334.16, 1291.25 332.27 C 1294.51 330.39, 1296.35 329.59, 1298.98 328.92 C 1301.61 328.25, 1302.61 328.25, 1304.41 328.93 C 1306.22 329.60, 1306.82 330.42, 1308.02 332.30 C 1309.22 334.19, 1309.63 335.60, 1310.42 338.36 C 1311.21 341.11, 1311.54 342.77, 1311.98 346.05 C 1312.43 349.34, 1312.37 351.47, 1312.64 354.79 C 1312.90 358.11, 1312.92 360.13, 1313.32 362.64 C 1313.73 365.15, 1314.02 366.39, 1314.66 367.34 C 1315.29 368.28, 1315.81 368.35, 1316.49 367.38 C 1317.17 366.42, 1317.79 365.11, 1318.06 362.52 C 1318.33 359.92, 1318.06 357.84, 1317.84 354.41 C 1317.62 350.99, 1317.44 348.88, 1316.95 345.37 C 1316.46 341.86, 1316.39 340.05, 1315.40 336.86 C 1314.40 333.67, 1313.88 331.81, 1311.97 329.42 C 1310.06 327.04, 1308.64 325.89, 1305.83 324.93 C 1303.03 323.97, 1301.28 323.86, 1297.95 324.62 C 1294.62 325.38, 1292.76 326.65, 1289.19 328.73 C 1285.62 330.81, 1283.68 332.33, 1280.10 335.02 C 1276.53 337.71, 1274.58 339.58, 1271.32 342.18 C 1268.06 344.77, 1266.01 346.16, 1263.82 348.02 C 1261.63 349.87, 1261.16 350.83, 1260.36 351.47 C 1259.57 352.11, 1259.72 352.18, 1259.85 351.22 C 1259.97 350.26, 1260.61 349.10, 1261.00 346.65 C 1261.39 344.21, 1261.35 342.15, 1261.80 338.99 C 1262.25 335.83, 1262.82 333.75, 1263.24 330.84 C 1263.65 327.94, 1263.91 326.49, 1263.90 324.48 C 1263.89 322.46, 1263.75 321.59, 1263.19 320.76 C 1262.63 319.93, 1261.92 319.80, 1261.08 320.32" style="stroke: black; fill: black;"/></svg>